<?xml version="1.0" standalone="no"?><!DOCTYPE svg PUBLIC "-//W3C//DTD SVG 1.1//EN" "http://www.w3.org/Graphics/SVG/1.1/DTD/svg11.dtd"><svg t="1733493842365" class="icon" viewBox="0 0 1024 1024" version="1.1" xmlns="http://www.w3.org/2000/svg" p-id="5371" xmlns:xlink="http://www.w3.org/1999/xlink" width="200" height="200"><path d="M939.23328 580.10624c0 242.3808-195.61472 438.85568-436.91008 438.85568S65.41312 822.48704 65.41312 580.10624c0-242.37056 195.61472-438.84544 436.91008-438.84544s436.91008 196.47488 436.91008 438.84544" fill="#F4F4F4" p-id="5372"></path><path d="M952.32 450.56c0 248.84224-201.71776 450.56-450.56 450.56S51.2 699.40224 51.2 450.56 252.91776 0 501.76 0s450.56 201.71776 450.56 450.56" fill="#DCE8FF" p-id="5373"></path><path d="M895.16032 705.3312H104.22272c-32.22528 0-58.35776-27.10528-58.35776-60.55936V276.00896C45.8752 242.56512 71.99744 215.4496 104.21248 215.4496h790.94784c32.23552 0 58.34752 27.11552 58.34752 60.55936v368.76288c0 33.45408-26.112 60.55936-58.34752 60.55936" fill="#1C52C9" p-id="5374"></path><path d="M895.17056 215.4496H104.22272C71.9872 215.4496 45.8752 242.55488 45.8752 276.00896v112.39424c119.16288 63.30368 291.584 103.1168 483.42016 103.1168 162.0992 0 310.25152-28.4672 424.22272-75.48928V276.00896c0-33.45408-26.112-60.55936-58.34752-60.55936" fill="#277AF4" p-id="5375"></path><path d="M186.1632 567.15264V353.62816h49.2544v95.1296h2.93888l86.9376-95.1296h54.784l-85.77024 93.67552 91.82208 119.84896h-59.04384l-68.34176-89.37472L235.4176 502.784v64.36864zM488.448 567.15264v-78.57152l-82.04288-134.9632h53.3504l51.8656 89.38496h2.92864l51.712-89.37472h53.32992l-81.87904 134.95296v78.57152zM635.61728 460.31872c0-69.39648 42.0864-112.15872 110.42816-112.15872 55.77728 0 98.5088 33.5872 102.10304 80.04608h-47.95392c-4.73088-24.55552-26.10176-40.68352-54.14912-40.68352-37.02784 0-60.0064 27.81184-60.0064 72.8064 0 44.97408 22.97856 72.92928 60.17024 72.92928 28.22144 0 49.41824-15.09376 54.1696-38.6048h47.93344c-4.07552 46.15168-45.50656 77.96736-102.26688 77.96736-68.17792 0-110.42816-42.76224-110.42816-112.30208" fill="#FFFFFF" p-id="5376"></path><path d="M904.00768 737.87392c0 79.50336-64.45056 143.95392-143.95392 143.95392s-143.94368-64.45056-143.94368-143.95392S680.5504 593.92 760.05376 593.92s143.95392 64.45056 143.95392 143.95392" fill="#27C2FF" p-id="5377"></path><path d="M849.54112 737.87392a89.4976 89.4976 0 0 1-178.97472 0 89.4976 89.4976 0 0 1 178.97472 0" fill="#FFFFFF" p-id="5378"></path><path d="M934.30784 904.5504a26.50112 26.50112 0 0 1-37.49888 0l-60.98944-60.98944a26.50112 26.50112 0 0 1 0-37.49888 26.50112 26.50112 0 0 1 37.49888 0l60.98944 60.98944a26.50112 26.50112 0 0 1 0 37.49888" fill="#27C2FF" p-id="5379"></path></svg>